<?xml version="1.0" encoding="iso-8859-1"?>
<!-- Generator: Adobe Illustrator 19.0.0, SVG Export Plug-In . SVG Version: 6.00 Build 0)  -->
<svg version="1.1" id="Layer_1" xmlns="http://www.w3.org/2000/svg" xmlns:xlink="http://www.w3.org/1999/xlink" x="0px" y="0px"
	 viewBox="0 0 469.333 469.333" style="enable-background:new 0 0 469.333 469.333;" xml:space="preserve">
<g>
	<g>
		<g>
			<path d="M202.667,42.667H160c-4.313,0-8.208,2.594-9.854,6.583c-1.646,3.99-0.729,8.573,2.313,11.625l21.333,21.333
				c2.083,2.083,4.813,3.125,7.542,3.125c2.729,0,5.458-1.042,7.542-3.125l21.333-21.333c3.042-3.052,3.958-7.635,2.313-11.625
				C210.875,45.26,206.979,42.667,202.667,42.667z"/>
			<path d="M295.542,45.792c-4.167-4.167-10.917-4.167-15.083,0l-21.333,21.333c-3.042,3.052-3.958,7.635-2.313,11.625
				c1.646,3.99,5.542,6.583,9.854,6.583h42.667c4.313,0,8.208-2.594,9.854-6.583c1.646-3.99,0.729-8.573-2.313-11.625
				L295.542,45.792z"/>
			<circle cx="405.333" cy="213.333" r="21.333"/>
			<circle cx="405.333" cy="277.333" r="21.333"/>
			<path d="M426.667,0h-384C19.146,0,0,19.135,0,42.667v416c0,5.896,4.771,10.667,10.667,10.667h106.667
				c5.896,0,10.667-4.771,10.667-10.667V448h213.333v10.667c0,5.896,4.771,10.667,10.667,10.667h106.667
				c5.896,0,10.667-4.771,10.667-10.667v-416C469.333,19.135,450.188,0,426.667,0z M224,426.667h-96V128h96V426.667z
				 M341.333,426.667h-96V128h96V426.667z M448,448h-85.333V117.333c0-5.896-4.771-10.667-10.667-10.667H117.333
				c-5.896,0-10.667,4.771-10.667,10.667V448H21.333V42.667c0-11.76,9.563-21.333,21.333-21.333h384
				c11.771,0,21.333,9.573,21.333,21.333V448z"/>
		</g>
	</g>
</g>
<g>
</g>
<g>
</g>
<g>
</g>
<g>
</g>
<g>
</g>
<g>
</g>
<g>
</g>
<g>
</g>
<g>
</g>
<g>
</g>
<g>
</g>
<g>
</g>
<g>
</g>
<g>
</g>
<g>
</g>
</svg>
